<svg version="1.1" id="Layer_1" xmlns="http://www.w3.org/2000/svg" xmlns:xlink="http://www.w3.org/1999/xlink" x="0px" y="0px"
	 width="100%" viewBox="0 0 128 112" enable-background="new 0 0 128 112" xml:space="preserve">
<path fill="#000000" opacity="1.000000" stroke="none" 
	d="
M1.000000,100.250000 
	C2.895139,94.196495 2.473616,88.147400 2.557488,82.216339 
	C2.880255,59.391689 2.849639,36.562283 3.076791,13.735909 
	C3.157182,5.657436 6.846984,2.203416 14.824984,2.359235 
	C45.647614,2.961233 76.471275,2.675085 107.294739,2.504278 
	C114.638466,2.463583 117.335167,6.372375 114.447647,12.979679 
	C113.987282,14.033098 113.610779,15.123166 113.199196,16.186737 
	C112.764000,16.051765 112.266609,16.003218 112.245529,15.875831 
	C111.111336,9.023354 111.101227,8.744990 104.195412,9.099330 
	C75.409973,10.576321 46.601158,8.810863 17.811245,9.836918 
	C13.546040,9.988926 11.902475,11.268006 11.878687,15.597826 
	C11.733171,42.083500 11.455368,68.568810 11.097306,95.052559 
	C11.044272,98.975113 12.077662,100.838234 16.437840,100.660156 
	C41.083630,99.653595 65.737442,100.511589 90.387032,100.695351 
	C94.593445,100.726707 95.814903,99.252708 95.844803,95.187630 
	C96.005302,73.366211 96.421967,51.546776 96.707504,29.726101 
	C96.790543,23.380907 96.612015,23.238724 90.331696,23.219246 
	C85.166206,23.203224 79.992851,23.435894 74.837471,23.216967 
	C71.071388,23.057037 68.636909,24.381084 66.688187,27.653166 
	C63.317867,33.312233 60.043655,33.611423 56.712952,28.190437 
	C54.218857,24.131117 51.160255,23.047737 46.801632,23.252764 
	C41.647625,23.495203 36.468449,23.429852 31.308910,23.248999 
	C27.753418,23.124371 26.202007,24.314604 26.202471,28.097174 
	C26.204638,45.753098 26.388052,63.416046 25.445063,81.057182 
	C25.295496,83.855278 26.318556,85.073143 29.081734,85.096886 
	C45.062717,85.234207 61.043488,85.398315 77.024101,85.574203 
	C80.080963,85.607849 81.685753,84.296585 81.667580,81.106758 
	C81.580200,65.774078 83.314743,67.346634 69.273064,67.358650 
	C60.441444,67.366203 51.609463,67.401787 42.778290,67.336929 
	C35.984417,67.287025 31.661591,62.897842 31.641138,56.153297 
	C31.629517,52.320934 31.675249,48.488319 31.706852,44.655914 
	C31.762293,37.932693 34.929558,34.755661 41.650642,34.745487 
	C54.981323,34.725307 68.312050,34.728920 81.642754,34.733967 
	C83.801125,34.734783 86.002724,34.553223 87.963570,35.763718 
	C89.608727,36.779339 92.019135,37.404392 91.408226,39.991581 
	C90.867699,42.280712 88.637550,42.090099 86.847397,42.104568 
	C78.682838,42.170544 70.517647,42.161259 62.352665,42.170074 
	C57.020359,42.175831 51.688019,42.157310 46.355747,42.170559 
	C45.191936,42.173450 43.741264,41.833664 42.911030,42.385876 
	C37.315205,46.107826 41.238277,51.775215 40.320908,56.489330 
	C39.733715,59.506752 42.220795,59.827454 44.585304,59.824474 
	C55.083256,59.811249 65.581253,59.834019 76.079239,59.847061 
	C86.666740,59.860210 90.327309,63.576801 90.277710,74.273926 
	C90.264580,77.106506 90.213272,79.938889 90.189407,82.771439 
	C90.134689,89.265121 87.058853,92.140327 80.552803,92.409668 
	C63.230995,93.126747 45.919006,93.037415 28.598003,92.400902 
	C20.889370,92.117630 16.666838,88.070312 16.767260,80.275055 
	C17.007500,61.626228 17.331749,42.978378 17.670034,24.331001 
	C17.747751,20.046988 21.856363,15.994443 26.244287,15.952809 
	C34.908421,15.870600 43.574696,16.001667 52.238510,15.904282 
	C55.282230,15.870069 57.606716,17.397991 60.326450,19.056454 
	C62.494747,15.965955 65.725868,15.828183 69.124985,15.874438 
	C77.288658,15.985531 85.454704,15.907896 93.619324,15.968689 
	C99.998764,16.016188 104.633484,20.305893 105.053192,26.708336 
	C105.292564,30.359734 105.475945,34.063438 105.148575,37.695282 
	C103.334435,57.821503 104.290932,77.978363 104.258133,98.124313 
	C104.248032,104.326668 101.546768,107.217148 95.427650,107.426407 
	C67.781433,108.371819 40.132202,107.923683 12.480721,107.704086 
	C7.276622,107.662743 5.490693,102.955002 1.298377,101.159706 
	C1.000000,101.000000 1.000000,100.500000 1.000000,100.250000 
z"/>
<path fill="#000000" opacity="1.000000" stroke="none" 
	d="
M116.437500,113.000000 
	C115.884102,112.688377 115.852806,112.293770 115.640190,112.077034 
	C104.548538,100.770149 111.989830,87.368736 111.059235,74.894981 
	C113.550522,78.318886 114.101280,82.140717 113.968857,86.077034 
	C113.842857,89.822060 114.285194,93.351776 116.534439,96.526459 
	C117.181374,97.439568 117.779640,98.698471 117.711212,99.754181 
	C117.383255,104.813599 119.920311,108.624451 122.892052,112.672119 
	C120.958336,113.000000 118.916664,113.000000 116.437500,113.000000 
z"/>
</svg>